<svg xmlns="http://www.w3.org/2000/svg" width="512" height="512" viewBox="0 0 512 512" role="img" aria-label="Buddy">
  <rect width="512" height="512" fill="#ffffff"/>
  <rect x="36" y="36" width="440" height="440" rx="48" fill="#000000"/>
  <rect x="92" y="92" width="328" height="328" rx="28" fill="#ffffff"/>
  <path d="M178 144h99c48 0 78 25 78 65 0 24-12 42-32 54 28 10 43 32 43 64 0 46-35 72-91 72h-97V144Zm91 102c25 0 39-12 39-32 0-19-14-31-39-31h-43v63h43Zm8 112c28 0 43-13 43-36 0-22-15-35-44-35h-50v71h51Z" fill="#000000"/>
</svg>
