<svg xmlns="http://www.w3.org/2000/svg" width="192" height="192" viewBox="0 0 192 192" role="img" aria-label="Buddy">
  <rect width="192" height="192" fill="#ffffff"/>
  <rect x="14" y="14" width="164" height="164" rx="18" fill="#000000"/>
  <rect x="34" y="34" width="124" height="124" rx="10" fill="#ffffff"/>
  <path d="M67 54h37c18 0 29 9 29 24 0 9-4 16-12 20 10 4 16 12 16 24 0 17-13 27-34 27H67V54Zm34 38c9 0 14-4 14-12 0-7-5-11-14-11H85v23h16Zm3 42c10 0 15-5 15-13s-5-13-16-13H85v26h19Z" fill="#000000"/>
</svg>
